<?xml version="1.0" standalone="no"?>
<!DOCTYPE svg PUBLIC "-//W3C//DTD SVG 20010904//EN"
 "http://www.w3.org/TR/2001/REC-SVG-20010904/DTD/svg10.dtd">
<svg version="1.0" xmlns="http://www.w3.org/2000/svg"
 width="736.000000pt" height="736.000000pt" viewBox="0 0 736.000000 736.000000"
 preserveAspectRatio="xMidYMid meet">

<g transform="translate(0.000000,736.000000) scale(0.100000,-0.100000)"
fill="#000000" stroke="none">
<path d="M0 3680 l0 -3680 1497 0 c1164 0 1494 3 1485 12 -17 17 -15 33 2 19
18 -15 46 -3 46 20 0 20 -34 27 -43 9 -3 -6 -4 -5 -3 2 4 21 55 35 66 18 7
-12 12 -11 30 5 12 11 25 19 29 18 3 -2 6 2 6 9 0 7 -18 14 -40 16 -22 2 -42
6 -45 9 -3 2 8 16 24 30 28 24 30 24 43 7 7 -10 13 -23 13 -30 0 -6 7 -14 15
-18 19 -7 19 -4 -2 56 l-18 50 24 19 c13 10 27 19 32 19 5 0 23 -32 40 -70 18
-39 36 -70 40 -70 15 0 10 19 -21 90 -35 81 -37 105 -9 120 11 7 22 10 24 8 8
-8 95 -200 95 -209 0 -5 -18 -9 -39 -9 -38 0 -53 -12 -44 -37 3 -9 10 -10 21
-4 21 11 93 10 86 -1 -3 -5 4 -16 16 -26 20 -16 21 -19 6 -31 -13 -11 -19 -12
-29 -2 -9 10 -8 11 6 6 10 -4 17 -2 17 4 0 6 -4 11 -9 11 -5 0 -17 3 -27 7
-11 4 -15 3 -11 -4 16 -25 -37 -37 -150 -32 -10 1 -35 -2 -57 -6 -25 -6 -40
-4 -45 4 -6 9 -15 8 -37 -4 -26 -13 52 -15 810 -15 l838 0 -16 22 c-82 114
-99 154 -81 193 8 17 23 54 35 82 36 86 135 163 209 163 36 0 40 -6 48 -70 6
-54 -2 -62 -29 -30 -40 46 -119 28 -160 -39 -19 -29 -23 -50 -23 -111 0 -63 4
-82 27 -120 14 -25 40 -55 57 -68 28 -20 42 -23 112 -21 l81 3 -6 30 -6 31 31
-35 c35 -39 32 -14 -4 30 -26 33 -58 50 -92 50 -23 0 -25 -4 -25 -46 0 -43 -2
-46 -22 -40 -13 3 -26 6 -30 6 -3 0 -9 48 -12 108 -4 59 -9 135 -11 169 -5 56
-3 62 16 68 37 12 44 -9 48 -146 l1 -57 43 -6 c51 -8 88 -39 136 -113 l33 -53
1159 0 1159 0 0 3680 0 3680 -1810 0 c-1200 0 -1810 -3 -1810 -10 0 -5 -15
-10 -32 -10 -18 0 -58 -7 -88 -15 -61 -16 -98 -19 -65 -5 18 8 18 9 2 9 -10 1
-20 8 -23 16 -5 11 -21 15 -60 15 -59 0 -57 3 -38 -70 3 -11 -18 -23 -74 -42
-43 -16 -91 -28 -107 -28 -19 0 -25 -3 -17 -8 9 -6 5 -12 -13 -20 -37 -17 -55
-14 -25 4 14 8 17 13 7 10 -16 -5 -50 17 -53 33 0 3 -4 15 -8 26 -5 11 -14 36
-21 55 l-13 35 -111 3 c-69 2 -119 -2 -132 -9 -15 -8 -19 -8 -15 0 5 8 -136
11 -506 11 l-514 0 -28 -45 c-16 -25 -36 -45 -44 -45 -11 0 -12 -3 -3 -14 9
-11 9 -16 0 -22 -8 -4 -9 -3 -5 4 4 7 3 12 -2 12 -5 0 -12 -9 -15 -20 -3 -11
-10 -20 -17 -20 -6 0 -8 5 -3 13 4 6 17 40 29 75 l22 62 -884 0 -884 0 0
-3680z m2695 3540 c-24 -6 -26 -8 -7 -9 12 0 31 4 41 11 15 9 26 9 45 0 19 -8
26 -8 29 1 3 8 14 3 33 -13 16 -14 45 -34 64 -45 19 -10 50 -35 68 -54 19 -20
32 -28 28 -19 -3 12 -1 15 10 11 21 -8 17 -18 -13 -32 -15 -7 -33 -21 -41 -32
-13 -19 -39 -28 -27 -9 3 6 -1 7 -10 3 -11 -3 -13 -8 -6 -12 6 -4 -23 -31 -65
-61 l-76 -54 -86 3 c-75 2 -88 6 -101 24 -48 69 -110 96 -136 60 -11 -15 -15
-15 -29 -4 -14 12 -16 11 -16 -8 0 -11 -5 -21 -11 -21 -6 0 -8 7 -5 16 3 9 6
25 6 35 0 11 5 17 10 14 6 -3 10 -1 10 4 0 6 -4 11 -10 11 -16 0 -12 43 7 70
22 32 53 60 67 60 6 0 2 -7 -8 -15 -11 -8 -16 -15 -10 -15 5 0 2 -5 -6 -10 -8
-5 -10 -10 -5 -10 15 0 37 16 36 26 0 5 8 9 19 9 10 0 22 4 26 8 4 4 -3 7 -17
7 -23 0 -23 0 -4 13 22 16 112 40 123 34 4 -3 16 -1 27 4 11 4 31 7 45 7 23 0
22 -1 -5 -8z m-944 -40 c-30 -17 -57 -30 -60 -30 -4 0 -47 -40 -98 -90 -50
-49 -90 -90 -88 -90 2 0 -13 -17 -33 -39 -46 -48 -93 -107 -107 -135 -16 -29
-48 -80 -56 -86 -3 -3 -9 -15 -13 -27 -9 -28 14 -32 35 -7 8 10 22 14 40 10
19 -3 33 1 50 17 39 37 91 77 100 77 14 0 10 -61 -6 -110 -29 -85 -58 -155
-76 -181 -12 -17 -15 -30 -8 -40 7 -12 9 -12 9 1 1 20 47 53 55 40 10 -16 -12
-74 -66 -183 -53 -105 -129 -227 -141 -227 -11 0 -10 88 1 108 5 9 12 36 16
59 6 40 5 44 -19 52 -27 11 -56 57 -56 90 0 22 -22 41 -27 24 -2 -5 -22 -38
-43 -71 -42 -65 -65 -72 -76 -25 -8 29 -37 28 -43 -2 -2 -11 -8 -31 -13 -45
-10 -24 -11 -24 -19 -5 -7 17 -8 15 -7 -10 2 -32 -49 -155 -63 -155 -12 0 -11
3 6 36 8 16 14 40 14 54 -1 21 -3 19 -11 -10 -13 -45 -30 -81 -36 -76 -4 5 31
119 53 171 8 17 21 49 31 73 10 23 22 42 27 42 4 0 6 4 3 9 -7 11 76 171 131
251 111 162 133 191 213 275 107 113 173 161 328 241 97 49 136 60 53 14z
m1245 -472 c4 -6 3 -8 -4 -4 -6 3 -35 -3 -64 -14 -61 -23 -58 -23 -58 -11 0
10 48 27 112 40 4 0 10 -4 14 -11z m1782 -198 l0 -35 -9 40 c-4 22 -8 60 -7
85 l1 45 7 -50 c5 -27 8 -66 8 -85z m-1958 90 c-14 -4 -50 -8 -80 -8 -49 1
-51 1 -20 8 19 4 55 8 80 8 36 0 40 -2 20 -8z m830 -59 c-10 -38 -26 -84 -36
-103 -26 -50 -95 -135 -121 -149 -13 -7 -23 -16 -23 -21 0 -4 -7 -8 -15 -8
-20 0 -19 2 11 63 29 55 59 100 109 157 16 19 41 56 55 83 14 26 28 47 31 47
4 0 -1 -31 -11 -69z m-572 -11 c-3 -27 -1 -50 4 -50 5 0 24 11 42 25 18 14 37
25 41 25 18 0 45 -34 45 -56 0 -13 4 -26 10 -29 11 -7 107 90 116 117 3 10 10
18 15 18 13 0 3 -31 -32 -101 -16 -31 -29 -61 -29 -67 0 -30 -119 -216 -141
-220 -13 -2 -15 8 -11 71 2 48 0 77 -7 81 -6 4 -11 0 -11 -8 0 -9 -4 -16 -8
-16 -5 0 -15 -11 -22 -25 -14 -25 -47 -31 -42 -7 4 20 -14 14 -55 -20 -40 -33
-58 -57 -97 -131 -27 -51 -33 -28 -7 26 12 24 21 48 21 54 0 6 9 33 21 60 11
26 24 66 29 88 11 51 31 102 53 138 9 15 24 38 32 52 25 41 38 31 33 -25z
m2124 -60 c20 -38 28 -69 28 -106 0 -62 -13 -76 -30 -34 -7 17 -16 30 -20 30
-4 0 -15 28 -24 63 -32 114 -31 109 -5 105 18 -2 31 -18 51 -58z m-2516 -90
c19 0 34 -4 34 -10 0 -16 -63 -11 -85 7 -18 14 -18 15 -2 9 10 -3 34 -6 53 -6z
m2994 -23 c0 -8 6 -27 14 -43 8 -16 24 -49 36 -74 34 -72 50 -100 61 -100 5 0
9 -6 9 -14 0 -24 18 -28 50 -11 28 14 33 14 68 -2 20 -9 40 -22 44 -27 14 -21
20 5 10 44 -6 23 -6 42 -1 46 11 6 12 3 39 -111 11 -49 28 -115 37 -146 15
-56 14 -106 -2 -64 -58 156 -121 219 -168 168 -8 -10 -19 -30 -22 -46 -4 -15
-16 -32 -26 -38 -16 -8 -21 -4 -35 28 -9 21 -20 46 -25 55 -5 10 -9 25 -9 33
0 8 -9 32 -20 52 -11 21 -20 46 -20 56 0 11 -8 36 -19 56 -17 32 -41 116 -41
141 0 6 5 10 10 10 6 0 10 -6 10 -13z m402 -135 c63 -130 88 -192 94 -230 3
-20 11 -40 16 -43 6 -4 8 -16 5 -28 -3 -12 -1 -19 3 -16 5 3 18 -23 29 -57 22
-69 61 -241 55 -247 -1 -2 -6 8 -10 23 -3 14 -10 26 -14 26 -4 0 -6 12 -4 28
2 15 1 21 -2 15 -6 -15 -24 -17 -24 -4 0 5 -15 34 -34 66 -19 31 -32 63 -29
71 3 8 0 14 -6 14 -6 0 -11 6 -11 13 0 8 -8 29 -17 48 -22 44 -63 160 -63 179
0 8 -7 28 -15 44 -8 15 -15 40 -15 55 -1 14 -7 43 -14 63 -12 34 -7 58 14 58
3 0 22 -35 42 -78z m-419 -35 c44 -92 51 -196 11 -169 -10 7 -38 91 -54 162
-4 19 -11 47 -15 63 -14 53 21 19 58 -56z m-4753 -133 c0 -14 -4 -23 -10 -19
-5 3 -10 1 -10 -6 0 -7 -3 -9 -7 -6 -6 6 15 57 24 57 2 0 3 -12 3 -26z m-21
-66 c0 -22 -1 -22 -9 -3 -8 18 -9 18 -9 -6 -1 -14 -8 -34 -16 -45 -13 -17 -14
-16 -4 16 6 19 12 41 15 48 6 21 24 13 23 -10z m-58 -129 c-5 -13 -10 -19 -10
-12 -1 15 10 45 15 40 3 -2 0 -15 -5 -28z m-511 -118 c0 -11 6 -22 13 -24 9
-4 8 -8 -3 -17 -9 -7 -11 -13 -5 -16 13 -5 7 -84 -6 -84 -5 0 -9 -11 -9 -24 0
-27 -15 -42 -25 -26 -9 15 -18 157 -11 185 8 31 46 36 46 6z m5977 -183 c-3
-7 -5 -2 -5 12 0 14 2 19 5 13 2 -7 2 -19 0 -25z m-1211 -115 c20 -43 39 -80
43 -83 4 -3 17 -27 30 -55 12 -27 29 -63 37 -80 8 -16 23 -58 33 -92 l19 -61
-22 -6 c-20 -5 -20 -6 -2 -19 18 -13 18 -16 0 -90 -16 -68 -20 -77 -41 -77
-28 0 -76 -29 -101 -61 -24 -31 -32 -58 -38 -137 -5 -58 -4 -63 18 -71 19 -8
27 -5 43 15 20 23 21 23 32 5 11 -17 6 -24 -40 -60 -52 -40 -97 -91 -97 -111
0 -17 19 -11 30 11 21 37 22 12 2 -28 -23 -44 -37 -103 -26 -103 5 0 19 12 32
28 21 25 22 25 17 5 -7 -26 -3 -28 26 -13 17 10 19 7 19 -25 0 -39 9 -45 28
-15 14 24 50 26 59 5 5 -14 -15 -105 -23 -105 -2 0 -13 9 -24 20 -34 34 -43
16 -36 -69 8 -86 43 -172 82 -197 50 -33 126 9 169 94 15 32 15 35 0 52 -19
21 -13 37 20 50 24 9 35 56 35 146 0 24 3 44 8 44 20 -1 57 -109 60 -177 3
-40 8 -73 12 -73 19 0 99 92 116 134 32 78 34 51 2 -40 -31 -93 -103 -240
-166 -344 -39 -64 -40 -65 -17 -68 13 -2 40 4 61 13 20 8 38 14 40 13 4 -5
-15 -160 -26 -208 -67 -293 -99 -368 -218 -501 -76 -86 -184 -184 -273 -250
-119 -88 -288 -225 -377 -307 -29 -26 -62 -28 -152 -7 -197 47 -703 286 -933
442 -43 29 -83 58 -90 63 -51 42 -76 60 -80 60 -8 0 -127 123 -127 131 0 4 -9
11 -20 14 -18 6 -20 15 -20 108 1 133 17 427 23 434 3 3 18 -7 34 -22 15 -14
49 -37 74 -50 85 -44 238 -71 254 -45 5 9 -43 82 -66 100 -20 16 -154 229
-179 284 -68 152 -110 332 -110 469 0 92 4 92 89 -9 56 -68 86 -83 75 -39 -3
14 -4 25 -2 25 2 0 24 -27 48 -60 25 -33 49 -60 54 -60 5 0 6 14 2 32 -15 74
-19 141 -9 135 6 -4 13 -1 16 7 9 24 124 85 171 91 l44 6 -5 -65 c-5 -57 -3
-66 11 -66 9 0 16 6 16 13 0 8 11 24 24 36 l24 23 22 -22 c18 -18 21 -29 15
-57 -13 -72 -33 -100 -50 -73 -3 6 -13 10 -22 10 -23 0 -11 -85 23 -161 37
-83 81 -119 142 -119 41 0 53 5 80 33 29 30 68 114 57 125 -2 2 -23 5 -45 6
-35 2 -41 -1 -37 -15 7 -28 -21 -59 -53 -59 -45 0 -87 83 -65 133 8 19 55 24
55 5 0 -9 3 -8 10 2 8 13 11 12 24 -5 9 -11 16 -24 16 -30 0 -5 6 1 13 15 10
19 21 25 47 26 19 0 42 -3 51 -7 14 -7 17 0 23 38 3 25 6 59 6 74 0 29 13 38
25 19 15 -25 35 -9 35 28 l1 37 64 -67 c36 -38 67 -68 70 -68 10 0 5 38 -11
75 -8 20 -13 39 -11 41 2 3 10 -9 17 -25 14 -34 50 -71 50 -52 0 7 -5 22 -12
34 -7 12 -11 31 -10 42 2 12 -24 51 -67 102 l-70 82 31 15 c17 9 33 16 35 16
11 0 90 -81 111 -114 l24 -39 19 24 c10 13 34 56 54 94 19 39 35 65 35 60 0
-12 -34 -132 -45 -157 -22 -53 61 21 114 101 35 52 39 56 38 28 -1 -14 -6 -23
-11 -20 -4 3 -5 -4 -1 -16 3 -12 -5 -62 -20 -117 -14 -53 -24 -99 -21 -101 3
-3 8 3 11 13 4 10 11 26 16 34 5 8 12 23 15 33 4 9 10 17 14 17 4 0 13 14 20
30 7 17 16 30 20 30 4 0 11 19 15 43 7 35 9 38 12 16 2 -15 -7 -82 -21 -150
-38 -182 -17 -183 99 -9 148 222 236 474 271 778 10 78 19 142 21 142 2 0 20
-35 39 -77z m-1589 -146 c3 -119 24 -294 42 -340 8 -21 8 -29 -2 -32 -6 -2
-37 -11 -67 -19 -62 -18 -88 -32 -77 -42 4 -4 41 3 83 16 76 22 109 23 55 0
-16 -6 -37 -20 -47 -31 -11 -12 -25 -17 -38 -13 -15 4 -17 3 -7 -4 11 -8 10
-12 -7 -21 -11 -6 -28 -11 -37 -11 -15 0 -16 13 -10 138 11 232 29 333 71 408
20 35 36 64 37 64 1 0 3 -51 4 -113z m298 -162 c15 -60 35 -128 45 -150 10
-22 17 -41 16 -42 0 -1 -26 2 -56 5 l-55 7 -8 60 c-10 68 -2 319 10 338 5 7
10 -13 14 -48 3 -33 18 -109 34 -170z m1653 -171 c45 -72 113 -168 200 -279
59 -76 65 -90 56 -148 -4 -29 -7 -56 -6 -60 1 -5 -14 -7 -35 -5 -30 2 -42 10
-61 38 -14 22 -21 43 -17 57 7 29 -41 66 -120 93 -73 25 -136 25 -207 1 l-56
-19 26 45 c13 24 31 47 38 50 8 3 14 15 14 28 0 21 13 59 46 130 7 17 23 56
34 88 12 31 26 57 31 57 5 0 31 -34 57 -76z m-1431 -279 c8 -9 13 -19 10 -22
-3 -3 -13 2 -22 11 -9 9 -22 13 -28 9 -7 -4 -3 -12 11 -21 28 -19 28 -30 0
-28 -13 1 -24 9 -26 19 -9 44 24 62 55 32z m1173 -1 c0 -3 -5 -15 -11 -26 -8
-15 -13 -17 -19 -8 -4 7 -3 19 3 26 12 14 27 18 27 8z m-2614 -411 c-4 -126
-11 -253 -14 -283 l-7 -55 -35 75 c-32 68 -35 83 -34 160 0 47 6 110 13 140
14 56 69 190 79 190 3 0 2 -102 -2 -227z m2768 171 c16 -6 11 -34 -6 -34 -6 0
-7 7 -4 16 5 12 2 15 -9 10 -9 -3 -13 -2 -10 4 7 12 9 12 29 4z m336 -14 c0
-11 -7 -20 -15 -20 -9 0 -12 -6 -9 -17 3 -10 -2 -7 -10 7 -22 36 -19 50 9 50
18 0 25 -5 25 -20z m-360 -25 c10 -12 10 -15 -4 -15 -9 0 -16 7 -16 15 0 8 2
15 4 15 2 0 9 -7 16 -15z m25 -34 c-3 -6 -14 -10 -23 -10 -15 1 -15 2 1 6 9 2
17 9 17 15 0 6 3 9 6 5 3 -3 3 -10 -1 -16z m-64 -243 c6 1 8 -7 4 -20 -5 -17
-4 -19 4 -8 5 8 13 12 16 9 10 -11 -13 -56 -41 -78 -28 -22 -45 -17 -63 18
-11 22 -24 77 -16 70 3 -4 18 4 33 18 25 23 27 23 40 6 7 -10 18 -17 23 -15z
m-924 -2208 c10 -14 42 -49 71 -79 49 -51 68 -76 40 -53 -9 7 -17 5 -28 -6
-13 -14 -12 -15 4 -9 10 4 25 2 32 -4 11 -9 14 -8 14 2 0 14 25 -27 41 -70 7
-18 6 -22 -5 -18 -12 5 -14 -11 -10 -96 2 -65 0 -93 -5 -77 l-9 25 -1 -28 c-1
-15 -4 -26 -8 -25 -5 1 -28 -7 -52 -17 l-44 -18 22 -18 c12 -10 17 -20 11 -24
-5 -3 -10 -2 -10 3 0 12 -94 3 -98 -9 -2 -5 -21 -9 -43 -9 -21 0 -39 -4 -39
-10 0 -6 34 -10 82 -10 45 0 79 -3 76 -6 -4 -3 -78 -6 -165 -7 -147 -1 -149
-1 -35 -4 162 -5 161 -23 -1 -23 -68 0 -127 -3 -130 -6 -3 -4 -2 -15 3 -24 7
-13 6 -20 -4 -23 -10 -4 -20 7 -30 34 -9 21 -21 40 -28 40 -29 3 93 17 157 18
49 1 66 4 55 11 -8 5 -43 10 -77 10 l-63 0 0 38 -1 37 -14 -32 c-17 -39 -27
-41 -48 -10 -16 22 -16 21 -16 -15 -1 -37 -2 -38 -41 -38 -39 0 -40 1 -40 34
0 28 4 35 23 39 21 3 21 4 -6 15 -16 7 -44 12 -63 12 -28 0 -34 -4 -34 -21 0
-30 -24 -18 -28 15 -2 17 -12 31 -28 38 -13 6 -24 15 -24 20 0 5 -9 4 -19 -2
-12 -6 -22 -6 -25 -1 -3 5 1 11 9 15 8 3 15 10 15 16 0 14 -27 13 -32 -2 -6
-16 -37 -3 -45 19 -3 10 -15 31 -26 46 -10 15 -17 34 -14 41 3 7 -4 21 -15 30
-20 17 -20 17 -13 -25 5 -29 4 -40 -4 -35 -6 4 -12 33 -12 64 -1 47 -3 52 -9
27 -8 -30 -8 -30 -9 8 0 20 -6 37 -11 37 -7 0 -8 -13 -4 -36 5 -27 4 -35 -5
-30 -6 4 -11 21 -11 37 0 21 -4 28 -12 23 -7 -4 -10 -4 -6 1 4 4 0 21 -8 37
-9 16 -13 37 -9 46 3 9 3 13 -1 10 -3 -4 -16 12 -28 35 -18 36 -19 43 -6 49
24 11 30 9 30 -7 0 -9 8 -14 22 -12 15 1 24 -5 29 -23 4 -14 7 -19 8 -12 1 18
25 15 66 -8 20 -11 42 -20 50 -20 8 0 15 -4 15 -9 0 -5 17 -12 37 -16 21 -4
47 -12 58 -17 19 -11 19 -11 0 -20 -13 -5 -5 -6 20 -2 22 4 49 6 60 5 170 -14
337 11 386 59 40 39 82 107 74 122 -7 14 15 -13 42 -52z m-912 40 c3 -5 1 -10
-4 -10 -6 0 -11 5 -11 10 0 6 2 10 4 10 3 0 8 -4 11 -10z m115 -291 c0 8 2 12
4 10 2 -2 0 -26 -4 -54 -7 -45 -7 -46 -9 -13 0 20 -4 45 -7 55 -5 15 -4 15 5
3 9 -12 11 -13 11 -1z m985 -70 c4 -37 3 -59 -4 -63 -8 -5 -11 14 -11 60 0 80
6 81 15 3z m-715 -179 c18 -12 2 -12 -25 0 -13 6 -15 9 -5 9 8 0 22 -4 30 -9z
m-185 -30 c3 -5 1 -10 -4 -10 -6 0 -11 5 -11 10 0 6 2 10 4 10 3 0 8 -4 11
-10z m91 -16 c18 -14 18 -14 -6 -3 -31 14 -36 19 -24 19 6 0 19 -7 30 -16z
m-101 -14 c3 -5 2 -10 -4 -10 -5 0 -13 5 -16 10 -3 6 -2 10 4 10 5 0 13 -4 16
-10z m202 -66 c-3 -3 -12 -4 -19 -1 -8 3 -5 6 6 6 11 1 17 -2 13 -5z m639 -15
c9 -16 -29 -51 -60 -54 -14 -2 -24 1 -20 6 3 5 10 7 15 4 16 -10 33 6 18 17
-11 7 -11 9 1 7 28 -3 40 1 40 12 0 6 -7 8 -16 5 -8 -3 -12 -2 -9 4 8 13 22
13 31 -1z m-131 -9 c-3 -5 -12 -10 -18 -10 -7 0 -6 4 3 10 19 12 23 12 15 0z
m21 -67 c-6 -6 -36 9 -36 18 0 5 9 4 20 -3 10 -7 18 -14 16 -15z m42 -24 c-3
-8 -7 -3 -11 10 -4 17 -3 21 5 13 5 -5 8 -16 6 -23z m32 16 c0 -8 -2 -15 -4
-15 -2 0 -6 7 -10 15 -3 8 -1 15 4 15 6 0 10 -7 10 -15z m33 0 c-3 -9 -8 -14
-10 -11 -3 3 -2 9 2 15 9 16 15 13 8 -4z m-316 -92 c0 -8 -6 -9 -19 -2 -10 5
-18 11 -18 12 0 2 8 3 18 3 10 0 19 -6 19 -13z m-36 -10 c13 -17 13 -17 -6 -3
-11 8 -22 16 -24 17 -2 2 0 3 6 3 6 0 17 -8 24 -17z m180 -93 c-25 -21 -41
-26 -41 -12 0 9 38 30 55 31 6 0 -1 -9 -14 -19z m19 -20 c0 -5 -5 -10 -11 -10
-5 0 -7 5 -4 10 3 6 8 10 11 10 2 0 4 -4 4 -10z m575 -471 c5 -5 20 -9 32 -9
54 0 162 -148 143 -194 -5 -12 -16 -47 -25 -79 -11 -39 -21 -57 -31 -57 -12 0
-15 5 -9 23 14 40 10 160 -5 192 -8 16 -35 44 -59 63 -42 32 -49 33 -113 30
-69 -3 -87 5 -88 38 0 13 139 7 155 -7z m93 -143 c2 -9 -3 -23 -11 -29 -11
-10 -13 -28 -7 -90 4 -42 10 -80 14 -84 4 -4 37 -8 74 -9 75 -1 84 -12 62 -70
l-12 -29 -13 26 c-14 26 -66 46 -86 33 -5 -3 -27 8 -48 25 l-38 30 -2 81 c-1
45 -6 93 -12 106 -18 49 -13 54 33 40 27 -7 44 -19 46 -30z m166 -1 c4 -14 4
-36 0 -50 l-6 -25 -28 30 c-41 44 -44 58 -12 63 15 2 30 5 33 6 4 0 10 -10 13
-24z"/>
<path d="M2550 7182 c0 -4 17 -6 38 -4 58 5 62 10 10 11 -27 1 -48 -3 -48 -7z"/>
<path d="M2754 6935 c-17 -13 -17 -14 -2 -15 9 0 20 5 23 11 11 17 0 20 -21 4z"/>
<path d="M1560 7069 c0 -5 5 -7 10 -4 6 3 10 8 10 11 0 2 -4 4 -10 4 -5 0 -10
-5 -10 -11z"/>
<path d="M1300 6820 c0 -5 5 -10 10 -10 6 0 10 5 10 10 0 6 -4 10 -10 10 -5 0
-10 -4 -10 -10z"/>
<path d="M1261 6751 c-10 -6 -10 -10 -1 -16 13 -8 24 -1 19 14 -3 6 -10 7 -18
2z"/>
<path d="M1111 6514 c0 -11 3 -14 6 -6 3 7 2 16 -1 19 -3 4 -6 -2 -5 -13z"/>
<path d="M1071 6473 c0 -6 -4 -20 -7 -30 -5 -14 -4 -15 5 -7 7 7 11 20 8 30
-3 11 -5 14 -6 7z"/>
<path d="M6030 6271 c0 -5 5 -13 10 -16 6 -3 10 -2 10 4 0 5 -4 13 -10 16 -5
3 -10 2 -10 -4z"/>
<path d="M6081 6165 c0 -5 4 -19 8 -29 7 -19 8 -19 13 2 4 12 2 20 -2 17 -5
-3 -11 1 -13 7 -3 7 -5 9 -6 3z"/>
<path d="M6111 6114 c0 -11 3 -14 6 -6 3 7 2 16 -1 19 -3 4 -6 -2 -5 -13z"/>
<path d="M6183 5865 c-3 -9 -3 -18 -1 -21 3 -3 8 4 11 16 6 23 -1 27 -10 5z"/>
<path d="M6223 5774 c-15 -16 -16 -24 -4 -24 8 0 24 30 19 35 -2 2 -9 -3 -15
-11z"/>
<path d="M6242 5730 c0 -14 2 -19 5 -12 2 6 2 18 0 25 -3 6 -5 1 -5 -13z"/>
<path d="M3575 4247 c-14 -11 -15 -16 -5 -22 11 -7 29 9 30 28 0 10 -3 9 -25
-6z"/>
<path d="M3630 4205 c0 -8 5 -15 10 -15 6 0 10 7 10 15 0 8 -4 15 -10 15 -5 0
-10 -7 -10 -15z"/>
<path d="M3824 4168 c-4 -6 4 -21 20 -35 40 -34 136 -29 136 8 0 3 -25 9 -56
13 -31 3 -64 11 -74 16 -13 7 -21 6 -26 -2z"/>
<path d="M5430 3966 c0 -8 5 -18 10 -21 6 -3 10 1 10 9 0 8 -4 18 -10 21 -5 3
-10 -1 -10 -9z"/>
<path d="M5150 3937 c0 -24 35 -38 87 -35 63 4 66 24 6 31 -26 4 -58 9 -70 13
-17 5 -23 2 -23 -9z"/>
<path d="M5380 3931 c0 -5 7 -12 16 -15 24 -9 28 -7 14 9 -14 17 -30 20 -30 6z"/>
<path d="M4882 3868 c-16 -16 -15 -43 4 -80 9 -18 24 -54 34 -82 9 -27 21 -51
27 -53 31 -11 71 85 54 130 -10 27 -80 97 -96 97 -6 0 -16 -5 -23 -12z"/>
<path d="M4594 3188 c-17 -6 -44 -21 -60 -33 -24 -20 -27 -27 -18 -42 15 -24
113 -26 131 -3 10 13 11 13 10 -4 -3 -31 22 -30 29 1 11 41 7 66 -12 80 -20
15 -36 15 -80 1z m71 -29 c11 -16 1 -19 -13 -3 -7 8 -8 14 -3 14 5 0 13 -5 16
-11z m-111 -35 c3 -8 2 -12 -4 -9 -6 3 -10 10 -10 16 0 14 7 11 14 -7z"/>
<path d="M4585 2550 c-3 -6 1 -7 9 -4 18 7 21 14 7 14 -6 0 -13 -4 -16 -10z"/>
<path d="M4317 1928 c-4 -12 -4 -24 -2 -27 3 -2 5 2 5 10 0 8 11 1 26 -16 l26
-30 -23 40 c-12 22 -23 41 -24 43 -2 1 -5 -7 -8 -20z"/>
<path d="M3572 1854 c8 -9 26 -14 39 -12 20 2 18 5 -15 15 -36 11 -38 11 -24
-3z"/>
<path d="M4387 1848 c-3 -8 3 -25 13 -38 l18 -23 -3 28 c-4 33 -20 52 -28 33z"/>
<path d="M4145 1780 c-3 -5 -1 -10 4 -10 6 0 11 5 11 10 0 6 -2 10 -4 10 -3 0
-8 -4 -11 -10z"/>
<path d="M3840 1770 c0 -5 4 -10 9 -10 6 0 13 5 16 10 3 6 -1 10 -9 10 -9 0
-16 -4 -16 -10z"/>
<path d="M3680 1569 c0 -5 5 -7 10 -4 6 3 10 8 10 11 0 2 -4 4 -10 4 -5 0 -10
-5 -10 -11z"/>
<path d="M4035 1510 c3 -5 8 -10 11 -10 2 0 4 5 4 10 0 6 -5 10 -11 10 -5 0
-7 -4 -4 -10z"/>
<path d="M4035 1450 c-3 -5 -1 -10 4 -10 6 0 11 5 11 10 0 6 -2 10 -4 10 -3 0
-8 -4 -11 -10z"/>
<path d="M3401 7324 c0 -11 3 -14 6 -6 3 7 2 16 -1 19 -3 4 -6 -2 -5 -13z"/>
<path d="M3325 7260 c-3 -5 -1 -10 4 -10 6 0 11 5 11 10 0 6 -2 10 -4 10 -3 0
-8 -4 -11 -10z"/>
<path d="M3251 7247 c12 -14 20 -16 40 -7 l24 11 -24 -5 c-14 -3 -32 0 -40 6
-14 11 -14 10 0 -5z"/>
<path d="M3158 116 c-23 -17 -23 -22 2 -29 24 -6 70 13 70 31 0 16 -50 15 -72
-2z"/>
<path d="M3081 62 c-8 -15 -7 -23 2 -30 17 -14 40 1 35 23 -5 26 -25 30 -37 7z"/>
<path d="M3193 64 c-8 -21 13 -42 28 -27 13 13 5 43 -11 43 -6 0 -13 -7 -17
-16z"/>
<path d="M3273 64 c-8 -21 13 -42 28 -27 13 13 5 43 -11 43 -6 0 -13 -7 -17
-16z"/>
</g>
</svg>
