<svg width="32" height="32" viewBox="0 0 32 32" fill="none" xmlns="http://www.w3.org/2000/svg">
<g id="discord 1" clip-path="url(#clip0_15_126)">
<g id="discord-icon-svgrepo-com 1">
<g id="Group">
<path id="Vector" d="M27.1071 5.63707C25.0357 4.66791 22.8208 3.96356 20.5051 3.5625C20.2208 4.07665 19.8886 4.76818 19.6595 5.31831C17.1979 4.94812 14.7591 4.94812 12.3429 5.31831C12.1138 4.76818 11.7741 4.07665 11.4872 3.5625C9.16908 3.96356 6.95167 4.6705 4.88025 5.6422C0.702191 11.9558 -0.430415 18.1126 0.135889 24.1819C2.90701 26.2513 5.59255 27.5085 8.23277 28.3311C8.88465 27.4339 9.46605 26.4801 9.9669 25.4751C9.01301 25.1126 8.09937 24.6653 7.2361 24.1459C7.46512 23.9763 7.68914 23.799 7.90558 23.6165C13.171 26.0792 18.8919 26.0792 24.0943 23.6165C24.3133 23.799 24.5373 23.9763 24.7638 24.1459C23.8979 24.6678 22.9818 25.1151 22.0279 25.4776C22.5288 26.4801 23.1077 27.4365 23.7621 28.3336C26.4048 27.511 29.0929 26.2539 31.864 24.1819C32.5285 17.1461 30.7289 11.0458 27.1071 5.63707ZM10.6842 20.4494C9.10363 20.4494 7.80741 18.9737 7.80741 17.1769C7.80741 15.38 9.07595 13.9018 10.6842 13.9018C12.2926 13.9018 13.5888 15.3774 13.561 17.1769C13.5635 18.9737 12.2926 20.4494 10.6842 20.4494ZM21.3157 20.4494C19.7351 20.4494 18.4389 18.9737 18.4389 17.1769C18.4389 15.38 19.7073 13.9018 21.3157 13.9018C22.9239 13.9018 24.2201 15.3774 24.1925 17.1769C24.1925 18.9737 22.9239 20.4494 21.3157 20.4494Z" fill="white"/>
</g>
</g>
</g>
<defs>
<clipPath id="clip0_15_126">
<rect width="32" height="32" fill="white"/>
</clipPath>
</defs>
</svg>
