<svg width="32" height="23" viewBox="0 0 32 23" fill="none" xmlns="http://www.w3.org/2000/svg">
<g id="YouTube_play_buttom_dark_icon_(2013-2017) 1">
<g id="Lozenge">
<g id="Group">
<path id="Vector" d="M31.5486 4.83703C31.5486 4.83703 31.2367 2.64008 30.282 1.67267C29.0714 0.402565 27.7111 0.396325 27.0903 0.321429C22.6287 0 15.9396 0 15.9396 0H15.9272C15.9272 0 9.23808 0 4.7766 0.321429C4.15573 0.396325 2.79545 0.402565 1.58492 1.67267C0.630224 2.64008 0.318231 4.83703 0.318231 4.83703C0.318231 4.83703 0 7.4147 0 9.99548V12.414C0 14.9948 0.318231 17.5725 0.318231 17.5725C0.318231 17.5725 0.630224 19.7694 1.58492 20.7368C2.79857 22.0069 4.38973 21.9663 5.09796 22.1006C7.64693 22.344 15.9335 22.4219 15.9335 22.4219C15.9335 22.4219 22.6287 22.4126 27.0903 22.088C27.7143 22.0131 29.0714 22.0069 30.282 20.7368C31.2367 19.7694 31.5486 17.5725 31.5486 17.5725C31.5486 17.5725 31.8668 14.9916 31.8668 12.414V9.99548C31.8668 7.4147 31.5486 4.83703 31.5486 4.83703ZM12.6419 15.3442V6.388L21.2529 10.8818L12.6419 15.3442Z" fill="white"/>
</g>
</g>
</g>
</svg>
